<?xml version="1.0" encoding="utf-8"?>
<!-- Generator: Adobe Illustrator 23.0.1, SVG Export Plug-In . SVG Version: 6.00 Build 0)  -->
<svg version="1.1" id="Layer_1" xmlns="http://www.w3.org/2000/svg" xmlns:xlink="http://www.w3.org/1999/xlink" x="0px" y="0px"
	 viewBox="0 0 590 370.3" style="enable-background:new 0 0 590 370.3;" xml:space="preserve">
<style type="text/css">
	.st0{fill:#FFFFFF;}
	.st1{fill:#D13038;}
	.st2{fill:#282828;}
	.st3{fill:none;stroke:#404040;stroke-width:7;stroke-linecap:round;stroke-linejoin:round;stroke-miterlimit:10;}
</style>
<g>
	<g id="XMLID_6_">
		<g>
			<path class="st0" d="M583.5,281.4c5.9,5.3,1.5,21.7,0.7,33.5c-0.3,4.8-0.3,11.4-1,17.8l-0.2,0c-45.5,20.6-166.2,14-204.8,16.4
				c-38.7,2.3-110.7,5.7-198.3,2.7S8.1,322.6,8.1,322.6l-0.2,0.1C5,317.3,3.5,311,3.5,303.3c0,0-0.3-5.2,0.9-12.4
				c0,0,20.5,12.4,76.5,18.1c40.3,4.1,98,6.6,142.7,5.2c17.3-0.5,32.7-1.7,44.3-3.5c7-1.1,14.4-2.3,22.3-3.5
				c39.4-5.9,89-12,135.7-10.9c5.9,0.1,12,0.3,18.3,0.3C498.5,297.3,566.5,295.1,583.5,281.4z"/>
			<path class="st1" d="M579.2,177.3c2.2,24.3,6.8,94.1,4.3,104c-17,13.8-85.1,16-139.3,15.3v0c0,0,14-45,16.7-53.3
				c2.1-6.6,4.2-17,17.7-24.9c0,0,0,0,0,0c3.5-2,7.7-3.9,12.9-5.5C516.9,205.3,579.2,177.3,579.2,177.3z"/>
			<path class="st1" d="M583,332.6l0.2,0c-1.1,9.4-4,18.1-12.4,19.3c-14,2-74,10.1-213.3,13.7c-139.3,3.5-221-1.3-273.7-10.7
				c-40.5-7.2-66.3-14.4-76-32.3l0.2-0.1c0,0,84.1,26.1,171.8,29.1s159.7-0.3,198.3-2.7C416.9,346.7,537.5,353.3,583,332.6z"/>
			<path class="st1" d="M578.9,173.3c0.1,1.1,0.2,2.5,0.4,4c0,0-62.4,28-87.7,35.7c-5.2,1.6-9.4,3.4-12.9,5.5c0,0,0,0,0,0
				c-1.5,0.5-94.6,33.9-122.7,37.9c-28.3,4-51.3,1.3-56.3-27.7c-4.9-28.2,44-57.7,44-57.7s-20.3,62.7,41,49.3
				C445.9,207,578,164,578,164h0C578.3,167.8,578.6,171,578.9,173.3z"/>
			<path class="st2" d="M578.1,164L578.1,164c0,0-132.2,43-193.5,56.3c-61.3,13.3-41-49.3-41-49.3s-48.9,29.5-44,57.7
				c5,29,28,31.7,56.3,27.7c28.1-4,121.3-37.3,122.7-37.9c-13.5,7.8-15.6,18.2-17.7,24.9c-2.7,8.3-16.7,53.3-16.7,53.3v0
				c-6.3-0.1-12.5-0.2-18.3-0.3c-46.7-1.1-96.3,5-135.7,10.9v0c0,0-28.3-33.9-38.3-60c-5.2-13.7-4.6-30.6-2.8-43.6
				c32.9,2.3,58.8-27.3,72.8-39s36.7-6.2,55-9.6c11.3-2.1,16.4-14.4,18.6-25.3l1.4,0.3c0,0,34.3,29.3,81.3,34
				c47,4.7,98.5-19.4,98.5-19.4C577.2,151.9,577.6,158.6,578.1,164z"/>
			<path class="st1" d="M574.1,99c0.7,14.6,1.7,31.4,2.6,45.7c0,0-51.5,24-98.5,19.4c0,0-3-19.7-31-36.7
				c-13.5-8.2-31.9-18.6-47.4-27.1C383.1,91,369.9,84,369.9,84c-0.8-8.2-1.6-23.5,0.2-38.6c0,0,10.8-30,29.5-22.7
				C418.2,30,574.1,99,574.1,99z"/>
			<path class="st2" d="M572.9,65.3c0,5.5,0.5,18.4,1.3,33.6c0,0-155.9-69-174.6-76.3c-18.7-7.3-29.5,22.7-29.5,22.7
				c2.6-22.3,10.8-44.1,32.8-41.7C441.5,8,496.9,28,525.5,36C554.2,44,572.9,50,572.9,65.3z"/>
			<path class="st2" d="M447.2,127.3c28,17,31,36.7,31,36.7c-47-4.7-81.3-34-81.3-34l-1.4-0.3c1.3-6.7,1.6-12.9,1.4-15.7
				c-0.3-7.3,2.9-13.8,2.9-13.8C415.3,108.8,433.7,119.1,447.2,127.3z"/>
			<path class="st2" d="M369.9,84c0,0,13.2,7.1,29.9,16.3c0,0-3.2,6.5-2.9,13.8c0.1,2.8-0.1,9-1.4,15.7
				c-2.2,10.9-7.3,23.2-18.6,25.3c-18.3,3.3-41-2.2-55,9.6s-39.8,41.3-72.8,39c1.6-11.6,4.2-20.1,4.3-20.4c0,0,0,0,0,0
				c2-1,4.1-1.8,6.1-2.5c16.7-5.3,38-27.7,53.3-35.2c15.3-7.5,26-20.2,40-22.2s19.3-20,17.3-36.7C370.1,85.9,370,85,369.9,84z"/>
			<path class="st2" d="M290.2,307.2L290.2,307.2c-7.9,1.2-15.4,2.4-22.3,3.5c-11.6,1.9-27,3-44.3,3.5c-13.1-50.2-45.8-66.5-46.8-67
				c0,0,0,0,0,0c-2.5-2.6-5.2-4.7-7.8-5.8c-11.3-5-10-15.5-9.8-15.5c8.4-2,16.6-4.4,24.5-7.2c41.4-14.6,55.8-28.6,69.9-35.5
				c-0.1,0.4-2.7,8.9-4.3,20.4c-1.8,13-2.5,29.9,2.8,43.6C261.9,273.3,290.2,307.2,290.2,307.2z"/>
			<path class="st2" d="M223.5,314.2c-44.7,1.4-102.3-1.1-142.7-5.2c-56-5.7-76.5-18.1-76.5-18.1c2.2-13.6,9.7-34.4,34.5-42.2
				c9.7,18.7,104.3,11.3,113.7,15.3c9.3,4,22,16.7,31.7,11c7.4-4.4,1-19-7.5-27.8C177.7,247.7,210.4,264,223.5,314.2z"/>
			<path class="st1" d="M176.7,247.2c8.5,8.8,14.9,23.5,7.5,27.8c-9.7,5.7-22.3-7-31.7-11c-9.3-4-104,3.3-113.7-15.3
				c31.7-10,78.2-12.6,120.2-22.8c-0.2,0-1.5,10.5,9.8,15.5C171.5,242.5,174.2,244.6,176.7,247.2
				C176.7,247.2,176.7,247.2,176.7,247.2z"/>
		</g>
		<g>
			<path class="st3" d="M253.4,183.2c2-1,4.1-1.8,6.1-2.5c16.7-5.3,38-27.7,53.3-35.2c15.3-7.5,26-20.2,40-22.2s19.3-20,17.3-36.7
				c-0.1-0.8-0.2-1.7-0.3-2.7c-0.8-8.2-1.6-23.5,0.2-38.6c2.6-22.3,10.8-44.1,32.8-41.7C441.5,8,496.9,28,525.5,36
				c28.7,8,47.3,14,47.3,29.3c0,5.5,0.5,18.4,1.3,33.6c0.7,14.6,1.7,31.4,2.6,45.7c0.5,7.3,0.9,13.9,1.3,19.4c0.3,3.8,0.6,7,0.8,9.3
				c0.1,1.1,0.2,2.5,0.4,4c2.2,24.3,6.8,94.1,4.3,104c5.9,5.3,1.5,21.7,0.7,33.5c-0.3,4.8-0.3,11.4-1,17.8
				c-1.1,9.4-4,18.1-12.4,19.3c-14,2-74,10.1-213.3,13.7c-139.3,3.5-221-1.3-273.7-10.7c-40.5-7.2-66.3-14.4-76-32.3
				C5,317.3,3.5,311,3.5,303.3c0,0-0.3-5.2,0.9-12.4c2.2-13.6,9.7-34.4,34.5-42.2c31.7-10,78.2-12.6,120.2-22.8
				c8.4-2,16.6-4.4,24.5-7.2C224.9,204.1,239.3,190,253.4,183.2"/>
			<path class="st3" d="M4.4,290.9c0,0,20.5,12.4,76.5,18.1c40.3,4.1,98,6.6,142.7,5.2c17.3-0.5,32.7-1.7,44.3-3.5
				c7-1.1,14.4-2.3,22.3-3.5c39.4-5.9,89-12,135.7-10.9c5.9,0.1,12,0.3,18.3,0.3c54.3,0.7,122.3-1.5,139.3-15.3"/>
			<path class="st3" d="M8.1,322.6c0,0,84.1,26.1,171.8,29.1s159.7-0.3,198.3-2.7c38.7-2.3,159.3,4.3,204.8-16.4"/>
			<path class="st3" d="M176.7,247.2c8.5,8.8,14.9,23.5,7.5,27.8c-9.7,5.7-22.3-7-31.7-11c-9.3-4-104,3.3-113.7-15.3"/>
			<path class="st3" d="M159.1,225.8c-0.2,0-1.5,10.5,9.8,15.5c2.6,1.1,5.3,3.2,7.8,5.8"/>
			<path class="st3" d="M176.7,247.2C176.7,247.2,176.7,247.2,176.7,247.2c1,0.5,33.7,16.8,46.8,67"/>
			<path class="st3" d="M253.4,183.2C253.4,183.2,253.4,183.2,253.4,183.2c-0.1,0.4-2.7,8.9-4.3,20.5c-1.8,13-2.5,29.9,2.8,43.6
				c10,26.2,38.3,60,38.3,60"/>
			<path class="st3" d="M478.6,218.5c3.5-2,7.7-3.9,12.9-5.5c25.3-7.7,87.7-35.7,87.7-35.7"/>
			<path class="st3" d="M444.2,296.7c0,0,14-45,16.7-53.3c2.1-6.6,4.2-17,17.7-24.9"/>
			<path class="st3" d="M478.6,218.5C478.6,218.5,478.6,218.5,478.6,218.5c-1.5,0.5-94.6,33.9-122.7,37.9
				c-28.3,4-51.3,1.3-56.3-27.7c-4.9-28.2,44-57.7,44-57.7s-20.3,62.7,41,49.3C445.9,207,578,164,578,164"/>
			<path class="st3" d="M370.1,45.4c0,0,10.8-30,29.5-22.7C418.2,30,574.1,99,574.1,99"/>
			<path class="st3" d="M576.7,144.6c0,0-51.5,24-98.5,19.4c-47-4.7-81.3-34-81.3-34"/>
			<path class="st3" d="M478.2,164c0,0-3-19.7-31-36.7c-13.5-8.2-31.9-18.6-47.4-27.1C383.1,91,369.9,84,369.9,84"/>
			<path class="st3" d="M399.8,100.2c0,0-3.2,6.5-2.9,13.8c0.1,2.8-0.1,9-1.4,15.7c-2.2,10.9-7.3,23.2-18.6,25.3
				c-18.3,3.3-41-2.2-55,9.6s-39.8,41.3-72.8,39"/>
		</g>
	</g>
</g>
</svg>
